Phish - 8/19/89
Dartmouth College - Hanover, NH
Collis Center

Transfer: SBD-Cass/X> Dennon DRW-840>Audiophile 2496>FLAC 6/4/06

My Cass/X was recorded in 11/93 and has a number of generations and quite a bit of hiss. Not perfect in any way, but file this in the something is better then nothing department. Hopefully this will spur someone to seed a better version.

Set I
1.  //Oh Kee Pa$->
2.  Suzy Greenberg
3.  TMWSIY->
4.  Alvenu Malkenu
5.  AC DC Bag
6.  Banter
7.  Punch You In\\The Eye$
8.  Rocky Top
9.  Bold As Love
10. //Mango Song
11. //Liz\\ards
12. Mike's Song\\
Set II
13. Split\\Open & Melt
14. Take The A Train 
15. Divided\\Sky
16. //Bathtub Gin

$2nd Oh Kee Pa and PYINTE (debuted 8/17 at the Front)

A good number of cuts detailed below:
Oh Kee Pa is missing the first minute or so.
PYINTE has about 10 seconds missing in the middle.
Mango just the opening note or two are missing.
Lizards is missing the very begining and has a quick cut in the tune.
Split has just a second gap right at the start that I left.
Mike's is cut at the very end and Hydrogen-> Weekapuag is missing.
SPOAM has a cut in the begining.
Sky has a cut in the beginning
Bathtub the opening note is missing.

SHNTOOL OUTPUT:
    length     expanded size   cdr  WAVE problems filename
     1:12.17       12740828    ---   --   -----   ph1989-08-19d1t01.wav
     4:46.04       50459852    ---   --   -----   ph1989-08-19d1t02.wav
     3:21.49       35571692    ---   --   -----   ph1989-08-19d1t03.wav
     2:59.66       31730876    ---   --   -----   ph1989-08-19d1t04.wav
     5:56.63       62946620    ---   --   -----   ph1989-08-19d1t05.wav
     0:45.19        7982732    ---   --   -----   ph1989-08-19d1t06.wav
     6:44.15       71300924    ---   --   -----   ph1989-08-19d1t07.wav
     2:57.20       31269884    ---   --   -----   ph1989-08-19d1t08.wav
     5:35.16       59131676    ---   --   -----   ph1989-08-19d1t09.wav
     7:02.10       74464364    ---   --   -----   ph1989-08-19d1t10.wav
     8:56.15       94585724    ---   --   -----   ph1989-08-19d1t11.wav
     4:13.55       44758604    ---   --   -----   ph1989-08-19d1t12.wav
     7:10.54       75979052    ---   --   -----   ph1989-08-19d1t13.wav
     5:09.35       54589964    ---   --   -----   ph1989-08-19d1t14.wav
    11:47.71      124881836    ---   --   -----   ph1989-08-19d1t15.wav
     5:50.23       61794140    ---   --   -----   ph1989-08-19d2t01.wav
    84:29.07      894188768 B                     (totals for 16 files, 1.0000 o
verall compression ratio)

FFP:
ph1989-08-19d1t05.flac:e62fc7dc8ee28c2a94399a346bd2cf71
ph1989-08-19d1t06.flac:2da9b8a1a67b18d35483bdf626a57815
ph1989-08-19d1t07.flac:3dc71dc8b7c5b83bc213334972013f35
ph1989-08-19d1t08.flac:016d5aa5597576f62243132bf3f25e05
ph1989-08-19d1t09.flac:50053a307a5f88ed5b43158d72c7ccdb
ph1989-08-19d1t10.flac:a67a16938acfda0dce5c1a68ee0df4bf
ph1989-08-19d1t11.flac:885e40c40dcfc4d75a2bf80a061219bc
ph1989-08-19d1t12.flac:426c99aca38e83dcba809f0bd43585c9
ph1989-08-19d1t13.flac:d517ff7438c5cb217db660de68787212
ph1989-08-19d1t14.flac:42754f66c501628e9bd3b4befe6ae242
ph1989-08-19d1t15.flac:33b1e77bb5d47a36bf4d741da281a230
ph1989-08-19d2t01.flac:1118dae9989f0b4c512838759fc20214
ph1989-08-19d1t01.flac:f9fe6c7da4ee0e2423b69cdcc2ac40f5
ph1989-08-19d1t02.flac:0e88ca860ad3f2ebbb53a1603f352112
ph1989-08-19d1t03.flac:97638ab6612e5284e429eab0b4b5c2f0
ph1989-08-19d1t04.flac:3790e03565cc9718f920f7299408b9b8
